
<svg xmlns="http://www.w3.org/2000/svg" height="294.133" width="1122.52"><path d="M192.398 204.663H163.83l-45.259-50.068v50.068H96.648V91.516h21.922v50.492l46.248-50.492h26.024L139.785 147.1zM258.73 125.602c0-2.639-.496-5.043-1.485-7.213a17.978 17.978 0 0 0-4.031-5.658c-1.697-1.601-3.701-2.85-6.01-3.748-2.313-.894-4.787-1.344-7.426-1.344h-15.841v35.218h15.84c2.64 0 5.114-.4 7.426-1.203 2.31-.8 4.314-1.956 6.01-3.465 1.698-1.506 3.042-3.323 4.032-5.446.989-2.12 1.485-4.501 1.485-7.141zm28.57 79.061h-24.142l-8.041-25.741c-.847-2.828-1.906-5.42-3.174-7.779-1.27-2.354-2.8-4.384-4.585-6.081-1.788-1.697-3.928-3.017-6.42-3.96-2.492-.941-5.432-1.415-8.817-1.415h-8.184v44.976h-21.64V91.658l44.614-.141c4.8 0 9.27.826 13.412 2.474 4.142 1.65 7.716 3.939 10.73 6.86 3.009 2.924 5.362 6.364 7.058 10.326 1.692 3.958 2.54 8.25 2.54 12.869 0 3.303-.516 6.507-1.546 9.617a32.387 32.387 0 0 1-4.355 8.628 33.703 33.703 0 0 1-6.672 7.002 28.109 28.109 0 0 1-8.5 4.596c3.559 1.32 6.461 3.23 8.712 5.728 2.25 2.5 4.028 5.494 5.341 8.98a101.097 101.097 0 0 1 1.826 4.81c.56 1.604 1.146 3.278 1.757 5.02.61 1.747 1.267 3.63 1.968 5.658.703 2.029 1.475 4.268 2.319 6.717 1.036 3.112 2.002 5.777 2.898 7.992.896 2.217 1.862 4.172 2.9 5.87zM375.553 204.663h-74.678V91.658h74.678v18.102h-53.179v27.015h52.472v17.68h-52.472v31.115h53.179zM414.445 204.663h-21.922V91.657h21.922zM522.5 91.516l-54.735 91.508h54.311v21.639h-92.073l56.006-93.628-53.885.14v-19.66zM559.98 204.663h-21.923V91.657h21.923zM637.625 125.602c0-2.639-.495-5.043-1.484-7.213a17.961 17.961 0 0 0-4.032-5.658c-1.696-1.601-3.701-2.85-6.01-3.748-2.311-.894-4.786-1.344-7.426-1.344h-15.84v35.218h15.84c2.64 0 5.115-.4 7.425-1.203 2.31-.8 4.315-1.956 6.01-3.465 1.7-1.506 3.044-3.323 4.033-5.446.99-2.12 1.484-4.501 1.484-7.141zm28.57 79.061h-24.14l-8.043-25.741c-.847-2.828-1.906-5.42-3.174-7.779-1.27-2.354-2.798-4.384-4.584-6.081-1.788-1.697-3.928-3.017-6.421-3.96-2.492-.941-5.43-1.415-8.817-1.415h-8.183v44.976h-21.639V91.658l44.614-.141c4.798 0 9.27.826 13.41 2.474 4.143 1.65 7.718 3.939 10.73 6.86 3.01 2.924 5.364 6.364 7.058 10.326 1.694 3.958 2.542 8.25 2.542 12.869 0 3.303-.518 6.507-1.547 9.617a32.352 32.352 0 0 1-4.356 8.628 33.732 33.732 0 0 1-6.67 7.002 28.124 28.124 0 0 1-8.5 4.596c3.558 1.32 6.46 3.23 8.71 5.728 2.25 2.5 4.028 5.494 5.343 8.98a102.534 102.534 0 0 1 1.824 4.81c.562 1.604 1.146 3.278 1.757 5.02.61 1.747 1.267 3.63 1.97 5.658.702 2.029 1.473 4.268 2.317 6.717 1.036 3.112 2.002 5.777 2.9 7.992.894 2.217 1.86 4.172 2.9 5.87zM900.126 183.873c-3.206 3.96-6.696 7.378-10.466 10.253-3.772 2.879-7.708 5.257-11.81 7.143a58.7 58.7 0 0 1-12.586 4.172 62.488 62.488 0 0 1-12.802 1.344c-8.393 0-16.264-1.51-23.618-4.527-7.356-3.016-13.768-7.164-19.236-12.445-5.468-5.28-9.807-11.503-13.011-18.67-3.207-7.164-4.81-14.897-4.81-23.194 0-8.108 1.58-15.722 4.74-22.842 3.157-7.118 7.495-13.318 13.011-18.598 5.515-5.279 11.95-9.452 19.306-12.518 7.354-3.062 15.225-4.596 23.618-4.596 9.71 0 18.55 1.98 26.52 5.94 7.966 3.959 14.73 9.242 20.295 15.842l-14.827 15.132c-4.236-5.75-8.99-9.876-14.26-12.375-5.272-2.497-11.154-3.75-17.65-3.75-5.366 0-10.402.993-15.108 2.971-4.708 1.98-8.826 4.691-12.356 8.134-3.532 3.442-6.308 7.448-8.331 12.021-2.025 4.575-3.036 9.453-3.036 14.639 0 5.281 1.01 10.206 3.036 14.78a38.99 38.99 0 0 0 8.327 12.092c3.526 3.489 7.642 6.222 12.349 8.202 4.701 1.982 9.735 2.971 15.1 2.971 5.079 0 9.877-.941 14.395-2.828 4.514-1.885 8.56-4.385 12.136-7.496v-10.89h-23.195v-18.67h44.27zM939.019 204.663h-21.922V91.657h21.922zM1035.758 174.963c0 4.242-.919 8.273-2.757 12.092-1.84 3.818-4.41 7.19-7.71 10.112-3.3 2.924-7.212 5.258-11.737 7-4.527 1.745-9.525 2.617-14.992 2.617-4.904 0-9.313-.283-13.224-.848-3.915-.565-7.592-1.46-11.033-2.687a52.81 52.81 0 0 1-9.9-4.738c-3.16-1.931-6.435-4.266-9.83-7.002l15.558-15.698c4.526 3.772 8.957 6.436 13.294 7.99 4.336 1.556 9.052 2.335 14.144 2.335 2.074 0 4.03-.307 5.87-.92 1.838-.612 3.44-1.437 4.808-2.475 1.366-1.036 2.452-2.262 3.254-3.677.799-1.415 1.202-2.97 1.202-4.668 0-1.79-.332-3.395-.99-4.808-.661-1.415-1.838-2.78-3.537-4.101-1.696-1.32-4.055-2.663-7.07-4.032-3.02-1.366-6.885-2.9-11.6-4.596a107.76 107.76 0 0 1-11.949-5.163c-3.82-1.93-7.166-4.264-10.042-7-2.878-2.735-5.187-5.94-6.931-9.617-1.745-3.68-2.616-8.015-2.616-13.014 0-4.808.965-9.24 2.899-13.294 1.932-4.054 4.573-7.518 7.92-10.395 3.346-2.876 7.26-5.113 11.74-6.719 4.477-1.602 9.31-2.404 14.496-2.404 8.674 0 15.984 1.13 21.924 3.395a47.776 47.776 0 0 1 15.838 9.9l-15.274 15.416c-2.828-2.733-5.988-4.83-9.475-6.293-3.49-1.46-7.59-2.192-12.307-2.192-2.168 0-4.17.332-6.01.99-1.838.66-3.418 1.532-4.738 2.616a12.97 12.97 0 0 0-3.182 3.819c-.802 1.463-1.202 2.993-1.202 4.596 0 1.792.376 3.42 1.13 4.879.756 1.464 2.028 2.878 3.82 4.244 1.792 1.368 4.173 2.736 7.142 4.1 2.97 1.37 6.67 2.854 11.103 4.457 5.659 1.979 10.512 4.15 14.568 6.505 4.052 2.359 7.355 4.95 9.9 7.779 2.545 2.83 4.43 6.012 5.657 9.547 1.224 3.536 1.839 7.52 1.839 11.952zM712.867 163.79l19.094-40.734 17.804 38.555 9.574 20.424h.059l4.463 9.646 6.085 12.982h23.963L740.447 91.516h-17.113L669.87 204.663h23.644l19.432-40.874z" fill="#fff"/></svg>